<?xml version="1.0" standalone="no"?><svg xmlns="http://www.w3.org/2000/svg" viewBox="0 0 1440 320"><path fill="#ffffff" fill-opacity="1" d="M0,256L20,213.3C40,171,80,85,120,96C160,107,200,213,240,261.3C280,309,320,299,360,282.7C400,267,440,245,480,218.7C520,192,560,160,600,154.7C640,149,680,171,720,197.3C760,224,800,256,840,234.7C880,213,920,139,960,128C1000,117,1040,171,1080,208C1120,245,1160,267,1200,282.7C1240,299,1280,309,1320,304C1360,299,1400,277,1420,266.7L1440,256L1440,0L1420,0C1400,0,1360,0,1320,0C1280,0,1240,0,1200,0C1160,0,1120,0,1080,0C1040,0,1000,0,960,0C920,0,880,0,840,0C800,0,760,0,720,0C680,0,640,0,600,0C560,0,520,0,480,0C440,0,400,0,360,0C320,0,280,0,240,0C200,0,160,0,120,0C80,0,40,0,20,0L0,0Z"></path></svg>